<mxfile host="app.diagrams.net" modified="2023-08-30T16:49:28.602Z" agent="Mozilla/5.0 (Windows NT 10.0; Win64; x64; rv:109.0) Gecko/20100101 Firefox/116.0" etag="G8BSvmXMDlOuhQ78aIf_" version="21.7.0" type="device">
  <diagram name="Página-1" id="JDGia8tVVXgxnmT7FJNg">
    <mxGraphModel dx="1434" dy="816" grid="1" gridSize="10" guides="1" tooltips="1" connect="1" arrows="1" fold="1" page="1" pageScale="1" pageWidth="827" pageHeight="1169" math="0" shadow="0">
      <root>
        <mxCell id="0" />
        <mxCell id="1" parent="0" />
        <mxCell id="_UqC-cuv32Ga_sGMdTIr-15" style="edgeStyle=orthogonalEdgeStyle;rounded=0;orthogonalLoop=1;jettySize=auto;html=1;exitX=0.5;exitY=1;exitDx=0;exitDy=0;entryX=0.5;entryY=0;entryDx=0;entryDy=0;labelBackgroundColor=none;fontColor=default;strokeColor=#23445D;" parent="1" target="_UqC-cuv32Ga_sGMdTIr-2" edge="1">
          <mxGeometry relative="1" as="geometry">
            <mxPoint x="405" y="110" as="sourcePoint" />
          </mxGeometry>
        </mxCell>
        <mxCell id="_UqC-cuv32Ga_sGMdTIr-16" style="edgeStyle=orthogonalEdgeStyle;rounded=0;orthogonalLoop=1;jettySize=auto;html=1;exitX=0.5;exitY=1;exitDx=0;exitDy=0;entryX=0.5;entryY=0;entryDx=0;entryDy=0;labelBackgroundColor=none;fontColor=default;strokeColor=#23445D;" parent="1" source="_UqC-cuv32Ga_sGMdTIr-2" target="_UqC-cuv32Ga_sGMdTIr-6" edge="1">
          <mxGeometry relative="1" as="geometry" />
        </mxCell>
        <mxCell id="_UqC-cuv32Ga_sGMdTIr-2" value="Pegue a panela" style="rounded=0;whiteSpace=wrap;html=1;labelBackgroundColor=none;fillColor=#182E3E;strokeColor=#FFFFFF;fontColor=#FFFFFF;" parent="1" vertex="1">
          <mxGeometry x="347.5" y="130" width="115" height="30" as="geometry" />
        </mxCell>
        <mxCell id="_UqC-cuv32Ga_sGMdTIr-17" style="edgeStyle=orthogonalEdgeStyle;rounded=0;orthogonalLoop=1;jettySize=auto;html=1;exitX=0.5;exitY=1;exitDx=0;exitDy=0;entryX=0.5;entryY=0;entryDx=0;entryDy=0;labelBackgroundColor=none;fontColor=default;strokeColor=#23445D;" parent="1" source="_UqC-cuv32Ga_sGMdTIr-6" target="_UqC-cuv32Ga_sGMdTIr-7" edge="1">
          <mxGeometry relative="1" as="geometry" />
        </mxCell>
        <mxCell id="_UqC-cuv32Ga_sGMdTIr-6" value="Encha de água" style="rounded=0;whiteSpace=wrap;html=1;labelBackgroundColor=none;fillColor=#182E3E;strokeColor=#FFFFFF;fontColor=#FFFFFF;" parent="1" vertex="1">
          <mxGeometry x="347.5" y="180" width="115" height="30" as="geometry" />
        </mxCell>
        <mxCell id="_UqC-cuv32Ga_sGMdTIr-18" style="edgeStyle=orthogonalEdgeStyle;rounded=0;orthogonalLoop=1;jettySize=auto;html=1;exitX=0.5;exitY=1;exitDx=0;exitDy=0;entryX=0.5;entryY=0;entryDx=0;entryDy=0;labelBackgroundColor=none;fontColor=default;strokeColor=#23445D;" parent="1" source="_UqC-cuv32Ga_sGMdTIr-7" target="_UqC-cuv32Ga_sGMdTIr-8" edge="1">
          <mxGeometry relative="1" as="geometry" />
        </mxCell>
        <mxCell id="_UqC-cuv32Ga_sGMdTIr-7" value="Coloque no fogão" style="rounded=0;whiteSpace=wrap;html=1;labelBackgroundColor=none;fillColor=#182E3E;strokeColor=#FFFFFF;fontColor=#FFFFFF;" parent="1" vertex="1">
          <mxGeometry x="347.5" y="230" width="115" height="30" as="geometry" />
        </mxCell>
        <mxCell id="_UqC-cuv32Ga_sGMdTIr-19" style="edgeStyle=orthogonalEdgeStyle;rounded=0;orthogonalLoop=1;jettySize=auto;html=1;exitX=0.5;exitY=1;exitDx=0;exitDy=0;entryX=0.5;entryY=0;entryDx=0;entryDy=0;labelBackgroundColor=none;fontColor=default;strokeColor=#23445D;" parent="1" source="_UqC-cuv32Ga_sGMdTIr-8" target="_UqC-cuv32Ga_sGMdTIr-14" edge="1">
          <mxGeometry relative="1" as="geometry" />
        </mxCell>
        <mxCell id="_UqC-cuv32Ga_sGMdTIr-8" value="Acenda o fogo" style="rounded=0;whiteSpace=wrap;html=1;labelBackgroundColor=none;fillColor=#182E3E;strokeColor=#FFFFFF;fontColor=#FFFFFF;" parent="1" vertex="1">
          <mxGeometry x="347.5" y="280" width="115" height="30" as="geometry" />
        </mxCell>
        <mxCell id="_UqC-cuv32Ga_sGMdTIr-21" style="edgeStyle=orthogonalEdgeStyle;rounded=0;orthogonalLoop=1;jettySize=auto;html=1;exitX=1;exitY=0.5;exitDx=0;exitDy=0;entryX=0;entryY=0.5;entryDx=0;entryDy=0;labelBackgroundColor=none;fontColor=default;strokeColor=#23445D;" parent="1" source="_UqC-cuv32Ga_sGMdTIr-9" target="_UqC-cuv32Ga_sGMdTIr-12" edge="1">
          <mxGeometry relative="1" as="geometry" />
        </mxCell>
        <mxCell id="_UqC-cuv32Ga_sGMdTIr-22" style="edgeStyle=orthogonalEdgeStyle;rounded=0;orthogonalLoop=1;jettySize=auto;html=1;exitX=0;exitY=0.5;exitDx=0;exitDy=0;entryX=1;entryY=0.5;entryDx=0;entryDy=0;labelBackgroundColor=none;fontColor=default;strokeColor=#23445D;" parent="1" source="_UqC-cuv32Ga_sGMdTIr-9" target="_UqC-cuv32Ga_sGMdTIr-13" edge="1">
          <mxGeometry relative="1" as="geometry" />
        </mxCell>
        <mxCell id="_UqC-cuv32Ga_sGMdTIr-9" value="A água está fervendo ?" style="rhombus;whiteSpace=wrap;html=1;labelBackgroundColor=none;fillColor=#182E3E;strokeColor=#FFFFFF;fontColor=#FFFFFF;rounded=0;" parent="1" vertex="1">
          <mxGeometry x="326.25" y="380" width="157.5" height="80" as="geometry" />
        </mxCell>
        <mxCell id="_UqC-cuv32Ga_sGMdTIr-28" style="edgeStyle=orthogonalEdgeStyle;rounded=0;orthogonalLoop=1;jettySize=auto;html=1;exitX=0.5;exitY=1;exitDx=0;exitDy=0;entryX=0.5;entryY=0;entryDx=0;entryDy=0;labelBackgroundColor=none;fontColor=default;strokeColor=#23445D;" parent="1" source="_UqC-cuv32Ga_sGMdTIr-12" target="_UqC-cuv32Ga_sGMdTIr-24" edge="1">
          <mxGeometry relative="1" as="geometry" />
        </mxCell>
        <mxCell id="_UqC-cuv32Ga_sGMdTIr-12" value="Sim" style="rounded=0;whiteSpace=wrap;html=1;labelBackgroundColor=none;fillColor=#182E3E;strokeColor=#FFFFFF;fontColor=#FFFFFF;" parent="1" vertex="1">
          <mxGeometry x="520" y="405" width="115" height="30" as="geometry" />
        </mxCell>
        <mxCell id="_UqC-cuv32Ga_sGMdTIr-23" style="edgeStyle=orthogonalEdgeStyle;rounded=0;orthogonalLoop=1;jettySize=auto;html=1;exitX=0.5;exitY=0;exitDx=0;exitDy=0;entryX=0;entryY=0.5;entryDx=0;entryDy=0;labelBackgroundColor=none;fontColor=default;strokeColor=#23445D;" parent="1" source="_UqC-cuv32Ga_sGMdTIr-13" target="_UqC-cuv32Ga_sGMdTIr-14" edge="1">
          <mxGeometry relative="1" as="geometry" />
        </mxCell>
        <mxCell id="_UqC-cuv32Ga_sGMdTIr-13" value="Não" style="rounded=0;whiteSpace=wrap;html=1;labelBackgroundColor=none;fillColor=#182E3E;strokeColor=#FFFFFF;fontColor=#FFFFFF;" parent="1" vertex="1">
          <mxGeometry x="180" y="405" width="115" height="30" as="geometry" />
        </mxCell>
        <mxCell id="_UqC-cuv32Ga_sGMdTIr-20" style="edgeStyle=orthogonalEdgeStyle;rounded=0;orthogonalLoop=1;jettySize=auto;html=1;exitX=0.5;exitY=1;exitDx=0;exitDy=0;entryX=0.5;entryY=0;entryDx=0;entryDy=0;labelBackgroundColor=none;fontColor=default;strokeColor=#23445D;" parent="1" source="_UqC-cuv32Ga_sGMdTIr-14" target="_UqC-cuv32Ga_sGMdTIr-9" edge="1">
          <mxGeometry relative="1" as="geometry" />
        </mxCell>
        <mxCell id="_UqC-cuv32Ga_sGMdTIr-14" value="Espere" style="rounded=0;whiteSpace=wrap;html=1;labelBackgroundColor=none;fillColor=#182E3E;strokeColor=#FFFFFF;fontColor=#FFFFFF;" parent="1" vertex="1">
          <mxGeometry x="347.5" y="330" width="115" height="30" as="geometry" />
        </mxCell>
        <mxCell id="_UqC-cuv32Ga_sGMdTIr-29" style="edgeStyle=orthogonalEdgeStyle;rounded=0;orthogonalLoop=1;jettySize=auto;html=1;exitX=0.5;exitY=1;exitDx=0;exitDy=0;entryX=0.5;entryY=0;entryDx=0;entryDy=0;labelBackgroundColor=none;fontColor=default;strokeColor=#23445D;" parent="1" source="_UqC-cuv32Ga_sGMdTIr-24" target="_UqC-cuv32Ga_sGMdTIr-25" edge="1">
          <mxGeometry relative="1" as="geometry" />
        </mxCell>
        <mxCell id="_UqC-cuv32Ga_sGMdTIr-24" value="Pegue o miojo" style="rounded=0;whiteSpace=wrap;html=1;labelBackgroundColor=none;fillColor=#182E3E;strokeColor=#FFFFFF;fontColor=#FFFFFF;" parent="1" vertex="1">
          <mxGeometry x="520" y="470" width="115" height="30" as="geometry" />
        </mxCell>
        <mxCell id="_UqC-cuv32Ga_sGMdTIr-38" style="edgeStyle=orthogonalEdgeStyle;rounded=0;orthogonalLoop=1;jettySize=auto;html=1;exitX=1;exitY=0.5;exitDx=0;exitDy=0;entryX=0;entryY=0.5;entryDx=0;entryDy=0;labelBackgroundColor=none;fontColor=default;strokeColor=#23445D;" parent="1" source="_UqC-cuv32Ga_sGMdTIr-25" target="_UqC-cuv32Ga_sGMdTIr-26" edge="1">
          <mxGeometry relative="1" as="geometry" />
        </mxCell>
        <mxCell id="_UqC-cuv32Ga_sGMdTIr-44" style="edgeStyle=orthogonalEdgeStyle;rounded=0;orthogonalLoop=1;jettySize=auto;html=1;exitX=0.5;exitY=1;exitDx=0;exitDy=0;entryX=0.5;entryY=0;entryDx=0;entryDy=0;labelBackgroundColor=none;fontColor=default;strokeColor=#23445D;" parent="1" source="_UqC-cuv32Ga_sGMdTIr-25" target="_UqC-cuv32Ga_sGMdTIr-39" edge="1">
          <mxGeometry relative="1" as="geometry" />
        </mxCell>
        <mxCell id="_UqC-cuv32Ga_sGMdTIr-25" value="Abra o miojo" style="rounded=0;whiteSpace=wrap;html=1;labelBackgroundColor=none;fillColor=#182E3E;strokeColor=#FFFFFF;fontColor=#FFFFFF;" parent="1" vertex="1">
          <mxGeometry x="520" y="520" width="115" height="30" as="geometry" />
        </mxCell>
        <mxCell id="_UqC-cuv32Ga_sGMdTIr-57" style="edgeStyle=orthogonalEdgeStyle;rounded=0;orthogonalLoop=1;jettySize=auto;html=1;exitX=0.5;exitY=1;exitDx=0;exitDy=0;entryX=0.5;entryY=0;entryDx=0;entryDy=0;labelBackgroundColor=none;fontColor=default;strokeColor=#23445D;" parent="1" source="_UqC-cuv32Ga_sGMdTIr-26" target="_UqC-cuv32Ga_sGMdTIr-33" edge="1">
          <mxGeometry relative="1" as="geometry" />
        </mxCell>
        <mxCell id="_UqC-cuv32Ga_sGMdTIr-26" value="Retire o sachê" style="rounded=0;whiteSpace=wrap;html=1;labelBackgroundColor=none;fillColor=#182E3E;strokeColor=#FFFFFF;fontColor=#FFFFFF;" parent="1" vertex="1">
          <mxGeometry x="690" y="520" width="115" height="30" as="geometry" />
        </mxCell>
        <mxCell id="_UqC-cuv32Ga_sGMdTIr-58" style="edgeStyle=orthogonalEdgeStyle;rounded=0;orthogonalLoop=1;jettySize=auto;html=1;exitX=0.5;exitY=1;exitDx=0;exitDy=0;entryX=0.5;entryY=0;entryDx=0;entryDy=0;labelBackgroundColor=none;fontColor=default;strokeColor=#23445D;" parent="1" source="_UqC-cuv32Ga_sGMdTIr-33" target="_UqC-cuv32Ga_sGMdTIr-34" edge="1">
          <mxGeometry relative="1" as="geometry" />
        </mxCell>
        <mxCell id="_UqC-cuv32Ga_sGMdTIr-33" value="Abra o sachê" style="rounded=0;whiteSpace=wrap;html=1;labelBackgroundColor=none;fillColor=#182E3E;strokeColor=#FFFFFF;fontColor=#FFFFFF;" parent="1" vertex="1">
          <mxGeometry x="690" y="579.75" width="115" height="30" as="geometry" />
        </mxCell>
        <mxCell id="_UqC-cuv32Ga_sGMdTIr-60" style="edgeStyle=orthogonalEdgeStyle;rounded=0;orthogonalLoop=1;jettySize=auto;html=1;exitX=0;exitY=0.5;exitDx=0;exitDy=0;entryX=1;entryY=0.5;entryDx=0;entryDy=0;labelBackgroundColor=none;fontColor=default;strokeColor=#23445D;" parent="1" source="_UqC-cuv32Ga_sGMdTIr-34" target="_UqC-cuv32Ga_sGMdTIr-40" edge="1">
          <mxGeometry relative="1" as="geometry" />
        </mxCell>
        <mxCell id="_UqC-cuv32Ga_sGMdTIr-34" value="Coloque na Água" style="rounded=0;whiteSpace=wrap;html=1;labelBackgroundColor=none;fillColor=#182E3E;strokeColor=#FFFFFF;fontColor=#FFFFFF;" parent="1" vertex="1">
          <mxGeometry x="690" y="640" width="115" height="30" as="geometry" />
        </mxCell>
        <mxCell id="_UqC-cuv32Ga_sGMdTIr-45" style="edgeStyle=orthogonalEdgeStyle;rounded=0;orthogonalLoop=1;jettySize=auto;html=1;exitX=0.5;exitY=1;exitDx=0;exitDy=0;entryX=0.5;entryY=0;entryDx=0;entryDy=0;labelBackgroundColor=none;fontColor=default;strokeColor=#23445D;" parent="1" source="_UqC-cuv32Ga_sGMdTIr-39" target="_UqC-cuv32Ga_sGMdTIr-40" edge="1">
          <mxGeometry relative="1" as="geometry" />
        </mxCell>
        <mxCell id="_UqC-cuv32Ga_sGMdTIr-39" value="Coloque o Miojo na Panela com a água" style="rounded=0;whiteSpace=wrap;html=1;labelBackgroundColor=none;fillColor=#182E3E;strokeColor=#FFFFFF;fontColor=#FFFFFF;" parent="1" vertex="1">
          <mxGeometry x="520" y="569.5" width="115" height="50.5" as="geometry" />
        </mxCell>
        <mxCell id="_UqC-cuv32Ga_sGMdTIr-46" style="edgeStyle=orthogonalEdgeStyle;rounded=0;orthogonalLoop=1;jettySize=auto;html=1;exitX=0.5;exitY=1;exitDx=0;exitDy=0;entryX=0.5;entryY=0;entryDx=0;entryDy=0;labelBackgroundColor=none;fontColor=default;strokeColor=#23445D;" parent="1" source="_UqC-cuv32Ga_sGMdTIr-40" target="_UqC-cuv32Ga_sGMdTIr-41" edge="1">
          <mxGeometry relative="1" as="geometry" />
        </mxCell>
        <mxCell id="_UqC-cuv32Ga_sGMdTIr-40" value="Espere cozinhar" style="rounded=0;whiteSpace=wrap;html=1;labelBackgroundColor=none;fillColor=#182E3E;strokeColor=#FFFFFF;fontColor=#FFFFFF;" parent="1" vertex="1">
          <mxGeometry x="520" y="640" width="115" height="30" as="geometry" />
        </mxCell>
        <mxCell id="_UqC-cuv32Ga_sGMdTIr-47" style="edgeStyle=orthogonalEdgeStyle;rounded=0;orthogonalLoop=1;jettySize=auto;html=1;exitX=1;exitY=0.5;exitDx=0;exitDy=0;entryX=0;entryY=0.5;entryDx=0;entryDy=0;labelBackgroundColor=none;fontColor=default;strokeColor=#23445D;" parent="1" source="_UqC-cuv32Ga_sGMdTIr-41" target="_UqC-cuv32Ga_sGMdTIr-43" edge="1">
          <mxGeometry relative="1" as="geometry" />
        </mxCell>
        <mxCell id="_UqC-cuv32Ga_sGMdTIr-48" style="edgeStyle=orthogonalEdgeStyle;rounded=0;orthogonalLoop=1;jettySize=auto;html=1;exitX=0;exitY=0.5;exitDx=0;exitDy=0;entryX=1;entryY=0.5;entryDx=0;entryDy=0;labelBackgroundColor=none;fontColor=default;strokeColor=#23445D;" parent="1" source="_UqC-cuv32Ga_sGMdTIr-41" target="_UqC-cuv32Ga_sGMdTIr-42" edge="1">
          <mxGeometry relative="1" as="geometry" />
        </mxCell>
        <mxCell id="_UqC-cuv32Ga_sGMdTIr-41" value="Passou 3 minutos?" style="rhombus;whiteSpace=wrap;html=1;labelBackgroundColor=none;fillColor=#182E3E;strokeColor=#FFFFFF;fontColor=#FFFFFF;rounded=0;" parent="1" vertex="1">
          <mxGeometry x="491.25" y="690" width="172.5" height="80" as="geometry" />
        </mxCell>
        <mxCell id="_UqC-cuv32Ga_sGMdTIr-49" style="edgeStyle=orthogonalEdgeStyle;rounded=0;orthogonalLoop=1;jettySize=auto;html=1;exitX=0.5;exitY=0;exitDx=0;exitDy=0;entryX=0;entryY=0.5;entryDx=0;entryDy=0;labelBackgroundColor=none;fontColor=default;strokeColor=#23445D;" parent="1" source="_UqC-cuv32Ga_sGMdTIr-42" target="_UqC-cuv32Ga_sGMdTIr-40" edge="1">
          <mxGeometry relative="1" as="geometry" />
        </mxCell>
        <mxCell id="_UqC-cuv32Ga_sGMdTIr-42" value="Não" style="rounded=0;whiteSpace=wrap;html=1;labelBackgroundColor=none;fillColor=#182E3E;strokeColor=#FFFFFF;fontColor=#FFFFFF;" parent="1" vertex="1">
          <mxGeometry x="347.5" y="715" width="115" height="30" as="geometry" />
        </mxCell>
        <mxCell id="_UqC-cuv32Ga_sGMdTIr-53" style="edgeStyle=orthogonalEdgeStyle;rounded=0;orthogonalLoop=1;jettySize=auto;html=1;exitX=0.5;exitY=1;exitDx=0;exitDy=0;entryX=0.5;entryY=0;entryDx=0;entryDy=0;labelBackgroundColor=none;fontColor=default;strokeColor=#23445D;" parent="1" source="_UqC-cuv32Ga_sGMdTIr-43" target="_UqC-cuv32Ga_sGMdTIr-50" edge="1">
          <mxGeometry relative="1" as="geometry" />
        </mxCell>
        <mxCell id="_UqC-cuv32Ga_sGMdTIr-43" value="Sim" style="rounded=0;whiteSpace=wrap;html=1;labelBackgroundColor=none;fillColor=#182E3E;strokeColor=#FFFFFF;fontColor=#FFFFFF;" parent="1" vertex="1">
          <mxGeometry x="690" y="715" width="115" height="30" as="geometry" />
        </mxCell>
        <mxCell id="_UqC-cuv32Ga_sGMdTIr-54" style="edgeStyle=orthogonalEdgeStyle;rounded=0;orthogonalLoop=1;jettySize=auto;html=1;exitX=0.5;exitY=1;exitDx=0;exitDy=0;entryX=0.5;entryY=0;entryDx=0;entryDy=0;labelBackgroundColor=none;fontColor=default;strokeColor=#23445D;" parent="1" source="_UqC-cuv32Ga_sGMdTIr-50" target="_UqC-cuv32Ga_sGMdTIr-51" edge="1">
          <mxGeometry relative="1" as="geometry" />
        </mxCell>
        <mxCell id="_UqC-cuv32Ga_sGMdTIr-50" value="Retire o miojo" style="rounded=0;whiteSpace=wrap;html=1;labelBackgroundColor=none;fillColor=#182E3E;strokeColor=#FFFFFF;fontColor=#FFFFFF;" parent="1" vertex="1">
          <mxGeometry x="690" y="780" width="115" height="30" as="geometry" />
        </mxCell>
        <mxCell id="_UqC-cuv32Ga_sGMdTIr-55" style="edgeStyle=orthogonalEdgeStyle;rounded=0;orthogonalLoop=1;jettySize=auto;html=1;exitX=0;exitY=0.5;exitDx=0;exitDy=0;entryX=1;entryY=0.5;entryDx=0;entryDy=0;labelBackgroundColor=none;fontColor=default;strokeColor=#23445D;" parent="1" source="_UqC-cuv32Ga_sGMdTIr-51" edge="1">
          <mxGeometry relative="1" as="geometry">
            <mxPoint x="660" y="845" as="targetPoint" />
          </mxGeometry>
        </mxCell>
        <mxCell id="_UqC-cuv32Ga_sGMdTIr-51" value="Coloque no prato" style="rounded=0;whiteSpace=wrap;html=1;labelBackgroundColor=none;fillColor=#182E3E;strokeColor=#FFFFFF;fontColor=#FFFFFF;" parent="1" vertex="1">
          <mxGeometry x="690" y="830" width="115" height="30" as="geometry" />
        </mxCell>
        <mxCell id="aFNnrblV9HpRNqLggXvj-1" value="Miojo" style="rounded=1;whiteSpace=wrap;html=1;strokeColor=#FFFFFF;fontColor=#FFFFFF;fillColor=#182E3E;labelBackgroundColor=none;" vertex="1" parent="1">
          <mxGeometry x="345" y="70" width="120" height="40" as="geometry" />
        </mxCell>
        <mxCell id="aFNnrblV9HpRNqLggXvj-3" value="Alimente-se" style="rounded=1;whiteSpace=wrap;html=1;strokeColor=#FFFFFF;fontColor=#FFFFFF;fillColor=#182E3E;" vertex="1" parent="1">
          <mxGeometry x="540" y="817.5" width="120" height="55" as="geometry" />
        </mxCell>
      </root>
    </mxGraphModel>
  </diagram>
</mxfile>
